<?xml version="1.0" encoding="utf-8"?><svg viewBox="0 0 512 512" xmlns="http://www.w3.org/2000/svg" xmlns:xlink="http://www.w3.org/1999/xlink"><style>:root>svg{display:none}:root>svg:target{display:block}</style><svg viewBox="0 0 496 512" id="github" xmlns="http://www.w3.org/2000/svg"><!--! Font Awesome Free 6.4.0 by @fontawesome - https://fontawesome.com License - https://fontawesome.com/license/free (Icons: CC BY 4.0, Fonts: SIL OFL 1.1, Code: MIT License) Copyright 2023 Fonticons, Inc.--><path d="M165.9 397.4c0 2-2.3 3.6-5.2 3.6-3.3.3-5.6-1.3-5.6-3.6 0-2 2.3-3.6 5.2-3.6 3-.3 5.6 1.3 5.6 3.6zm-31.1-4.5c-.7 2 1.3 4.3 4.3 4.9 2.6 1 5.6 0 6.2-2s-1.3-4.3-4.3-5.2c-2.6-.7-5.5.3-6.2 2.3zm44.2-1.7c-2.9.7-4.9 2.6-4.6 4.9.3 2 2.9 3.3 5.9 2.6 2.9-.7 4.9-2.6 4.6-4.6-.3-1.9-3-3.2-5.9-2.9zM244.8 8C106.1 8 0 113.3 0 252c0 110.9 69.8 205.8 169.5 239.2 12.8 2.3 17.3-5.6 17.3-12.1 0-6.2-.3-40.4-.3-61.4 0 0-70 15-84.7-29.8 0 0-11.4-29.1-27.8-36.6 0 0-22.9-15.7 1.6-15.4 0 0 24.9 2 38.6 25.8 21.9 38.6 58.6 27.5 72.9 20.9 2.3-16 8.8-27.1 16-33.7-55.9-6.2-112.3-14.3-112.3-110.5 0-27.5 7.6-41.3 23.6-58.9-2.6-6.5-11.1-33.3 2.6-67.9 20.9-6.5 69 27 69 27 20-5.6 41.5-8.5 62.8-8.5s42.8 2.9 62.8 8.5c0 0 48.1-33.6 69-27 13.7 34.7 5.2 61.4 2.6 67.9 16 17.7 25.8 31.5 25.8 58.9 0 96.5-58.9 104.2-114.8 110.5 9.2 7.9 17 22.9 17 46.4 0 33.7-.3 75.4-.3 83.6 0 6.5 4.6 14.4 17.3 12.1C428.2 457.8 496 362.9 496 252 496 113.3 383.5 8 244.8 8zM97.2 352.9c-1.3 1-1 3.3.7 5.2 1.6 1.6 3.9 2.3 5.2 1 1.3-1 1-3.3-.7-5.2-1.6-1.6-3.9-2.3-5.2-1zm-10.8-8.1c-.7 1.3.3 2.9 2.3 3.9 1.6 1 3.6.7 4.3-.7.7-1.3-.3-2.9-2.3-3.9-2-.6-3.6-.3-4.3.7zm32.4 35.6c-1.6 1.3-1 4.3 1.3 6.2 2.3 2.3 5.2 2.6 6.5 1 1.3-1.3.7-4.3-1.3-6.2-2.2-2.3-5.2-2.6-6.5-1zm-11.4-14.7c-1.6 1-1.6 3.6 0 5.9 1.6 2.3 4.3 3.3 5.6 2.3 1.6-1.3 1.6-3.9 0-6.2-1.4-2.3-4-3.3-5.6-2z"/></svg><svg viewBox="0 0 512 512" id="gitlab" xmlns="http://www.w3.org/2000/svg"><!--! Font Awesome Free 6.4.0 by @fontawesome - https://fontawesome.com License - https://fontawesome.com/license/free (Icons: CC BY 4.0, Fonts: SIL OFL 1.1, Code: MIT License) Copyright 2023 Fonticons, Inc.--><path d="M503.5 204.6l-.7-1.8-69.7-181.78c-1.4-3.57-3.9-6.59-7.2-8.64-2.4-1.55-5.1-2.515-8-2.81-2.9-.295-5.7.083-8.4 1.11-2.7 1.02-5.1 2.66-7.1 4.78-1.9 2.12-3.3 4.67-4.1 7.44l-47 144H160.8l-47.1-144c-.8-2.77-2.2-5.31-4.1-7.43-2-2.12-4.4-3.75-7.1-4.77a18.1 18.1 0 00-8.38-1.113 18.4 18.4 0 00-8.04 2.793 18.09 18.09 0 00-7.16 8.64L9.267 202.8l-.724 1.8a129.57 129.57 0 00-3.52 82c7.747 26.9 24.047 50.7 46.447 67.6l.27.2.59.4 105.97 79.5 52.6 39.7 32 24.2c3.7 1.9 8.3 4.3 13 4.3 4.7 0 9.3-2.4 13-4.3l32-24.2 52.6-39.7 106.7-79.9.3-.3c22.4-16.9 38.7-40.6 45.6-67.5 8.6-27 7.4-55.8-2.6-82z"/></svg><svg viewBox="0 0 46 65" id="html5-skill" xmlns="http://www.w3.org/2000/svg"><path d="M4.166 59.78L0 12.773h45.775l-4.17 46.998L22.858 65 4.166 59.78z"/><path d="M22.887 61.004l15.147-4.225 3.564-40.162h-18.71v44.387zM22.887 34.051h-7.583l-.523-5.903h8.106v-5.765H8.517l.138 1.546 1.409 15.887h12.823V34.05zm0 14.972l-.025.007-6.382-1.734-.408-4.598h-5.753l.803 9.052 11.739 3.279.026-.008v-5.998zM4.259 0H7.17v2.895h2.664V0h2.912v8.765H9.835V5.83H7.171v2.935H4.26V0zm12.318 2.907h-2.564V0h8.041v2.907H19.49v5.858h-2.912V2.907zM23.33 0h3.037l1.868 3.08L30.1 0h3.038v8.765h-2.9V4.421l-2.004 3.116h-.05L26.18 4.421v4.344h-2.85V0zm11.258 0h2.913v5.868h4.095v2.897h-7.008V0z"/><path d="M22.867 34.051v5.765h7.057l-.665 7.477-6.392 1.735v5.998l11.748-3.276.086-.974L36.048 35.6l.14-1.548h-13.32zm0-11.668v5.765H36.71l.115-1.296.261-2.923.137-1.546H22.867z"/></svg><svg viewBox="0 0 502.664 502.664" id="icon" xmlns="http://www.w3.org/2000/svg"><path d="M153.821 358.226L0 274.337v-46.463l153.821-83.414v54.574L46.636 250.523l107.185 53.431v54.272zm26.273 29.358L282.103 115.08h32.227L212.084 387.584h-31.99zm168.749-29.358v-54.272l107.164-52.999-107.164-52.59v-53.927l153.821 83.522v46.183l-153.821 84.083z"/></svg><svg viewBox="0 0 496 512" id="telegram" xmlns="http://www.w3.org/2000/svg"><!--! Font Awesome Free 6.4.0 by @fontawesome - https://fontawesome.com License - https://fontawesome.com/license/free (Icons: CC BY 4.0, Fonts: SIL OFL 1.1, Code: MIT License) Copyright 2023 Fonticons, Inc.--><path d="M248 8C111.033 8 0 119.033 0 256s111.033 248 248 248 248-111.033 248-248S384.967 8 248 8zm114.952 168.66c-3.732 39.215-19.881 134.378-28.1 178.3-3.476 18.584-10.322 24.816-16.948 25.425-14.4 1.326-25.338-9.517-39.287-18.661-21.827-14.308-34.158-23.215-55.346-37.177-24.485-16.135-8.612-25 5.342-39.5 3.652-3.793 67.107-61.51 68.335-66.746.153-.655.3-3.1-1.154-4.384s-3.59-.849-5.135-.5q-3.283.746-104.608 69.142-14.845 10.194-26.894 9.934c-8.855-.191-25.888-5.006-38.551-9.123-15.531-5.048-27.875-7.717-26.8-16.291q.84-6.7 18.45-13.7 108.446-47.248 144.628-62.3c68.872-28.647 83.183-33.623 92.511-33.789 2.052-.034 6.639.474 9.61 2.885a10.452 10.452 0 013.53 6.716 43.765 43.765 0 01.417 9.769z"/></svg><svg viewBox="0 0 24 24" id="whatsapp" xmlns="http://www.w3.org/2000/svg"><path d="M20.463 3.488A11.817 11.817 0 0012.05 0C5.495 0 .16 5.334.157 11.892a11.87 11.87 0 001.588 5.946L.057 24l6.304-1.654a11.88 11.88 0 005.683 1.448h.005c6.554 0 11.89-5.335 11.893-11.893a11.817 11.817 0 00-3.479-8.413zM12.05 21.785h-.004a9.86 9.86 0 01-5.031-1.378l-.361-.214-3.741.981.999-3.648-.235-.374a9.855 9.855 0 01-1.511-5.26c.002-5.45 4.437-9.884 9.889-9.884 2.64 0 5.122 1.03 6.988 2.898a9.827 9.827 0 012.892 6.993c-.003 5.452-4.437 9.886-9.885 9.886zm5.422-7.403c-.297-.149-1.758-.868-2.031-.967-.272-.099-.47-.149-.669.148s-.767.967-.941 1.166c-.173.198-.347.223-.644.074-.297-.149-1.255-.462-2.39-1.475-.883-.788-1.48-1.761-1.653-2.059s-.018-.458.13-.606c.134-.133.297-.347.446-.521.15-.172.199-.296.299-.495.099-.198.05-.372-.025-.521-.075-.148-.669-1.611-.916-2.206-.241-.58-.486-.501-.669-.51-.173-.009-.371-.01-.57-.01-.198 0-.52.074-.792.372s-1.04 1.017-1.04 2.479c0 1.463 1.065 2.876 1.213 3.074.148.198 2.095 3.2 5.076 4.487.709.306 1.263.489 1.694.626.712.226 1.36.194 1.872.118.571-.085 1.758-.719 2.006-1.413.248-.694.248-1.29.173-1.413-.074-.125-.272-.199-.569-.348z"/></svg></svg>